<?xml version="1.0" encoding="UTF-8"?><svg id="Layer_2" xmlns="http://www.w3.org/2000/svg" xmlns:xlink="http://www.w3.org/1999/xlink" viewBox="0 0 377.63 463"><defs><style>.cls-1{fill:url(#linear-gradient);}.cls-2{fill:url(#linear-gradient-3);}.cls-3{fill:url(#linear-gradient-4);}.cls-4{fill:url(#linear-gradient-2);}</style><linearGradient id="linear-gradient" x1="188.81" y1="529.19" x2="188.81" y2="-15.68" gradientUnits="userSpaceOnUse"><stop offset="0" stop-color="#f12711"/><stop offset="1" stop-color="#f5af19"/></linearGradient><linearGradient id="linear-gradient-2" x1="188.81" y1="93.44" x2="188.81" y2="463" gradientUnits="userSpaceOnUse"><stop offset="0" stop-color="#2c5364"/><stop offset=".52" stop-color="#203a43"/><stop offset="1" stop-color="#0f2027"/></linearGradient><linearGradient id="linear-gradient-3" x1="76.95" y1="433.74" x2="76.95" y2="121.67" gradientUnits="userSpaceOnUse"><stop offset="0" stop-color="#0f2027"/><stop offset=".48" stop-color="#203a43"/><stop offset="1" stop-color="#2c5364"/></linearGradient><linearGradient id="linear-gradient-4" x1="300.67" y1="433.74" x2="300.67" y2="120.76" xlink:href="#linear-gradient-3"/></defs><g id="Layer_1-2"><g><path class="cls-1" d="M308.14,305.22v-.02l-13.23-36.58s-.01,0-.01-.02l-54.03-149.46c-.25-.7-1.26-.7-1.51,0l-4.69,12.97c-.26,.72-1.31,.69-1.52-.05L194.75,.57c-.22-.76-1.32-.76-1.54,0l-26.06,89.25c-.22,.74-1.26,.77-1.52,.05l-9.34-25.83c-.25-.7-1.26-.7-1.51,0l-77.58,214.64-5.55,15.38s-.02,.05-.02,.08c-1.83,6.98-2.79,14.23-2.79,21.67,0,4.86,.59,9.85,1.7,14.93,11.61,53.34,80.08,115.95,118.27,115.95s106.77-62.7,118.32-116.07c1.09-5.04,1.67-9.99,1.67-14.81,0-3.57-.22-7.12-.66-10.59Z"/><path class="cls-4" d="M232.42,93.44l2.05,7.03c78.59,20.16,136.82,91.07,136.82,175.23,0,98.31-79.46,178.56-178.03,180.9-1.52,.15-3,.23-4.46,.23s-2.93-.08-4.45-.23C85.79,454.26,6.33,374.02,6.33,275.7c0-79.15,51.5-146.58,123.01-171.1l2.74-7.56C55.6,120.98,0,192.02,0,275.7c0,103.28,84.7,187.3,188.81,187.3s188.82-84.02,188.82-187.3c0-88.4-62.04-162.68-145.2-182.26Z"/><path class="cls-2" d="M112.7,416.05c6.92,6.61,13.96,12.54,20.95,17.68-66-22.66-113.39-84.86-113.39-158.04,0-69.24,42.44-128.66,102.93-154.03l-61.07,168.96-.33,1.05c-2.05,7.85-3.09,15.97-3.09,24.13,0,5.49,.66,11.24,1.94,17.09,5.83,26.78,24.8,57.08,52.07,83.15Z"/><path class="cls-3" d="M357.37,275.7c0,73.17-47.39,135.37-113.39,158.04,7.02-5.17,14.06-11.1,21-17.75,27.27-26.1,46.25-56.44,52.05-83.23,1.25-5.81,1.89-11.53,1.89-16.95,0-3.74-.22-7.5-.65-11.2v-1.19L252.22,120.76c61.67,24.84,105.15,84.85,105.15,154.94Z"/></g></g></svg>